%TF.GenerationSoftware,KiCad,Pcbnew,10.0.3*%
%TF.CreationDate,2026-09-19T14:13:58-04:00*%
%TF.ProjectId,hackpad.take.#2,6861636b-7061-4642-9e74-616b652e2332,rev?*%
%TF.SameCoordinates,Original*%
%TF.FileFunction,Soldermask,Top*%
%TF.FilePolarity,Negative*%
%FSLAX46Y46*%
G04 Gerber Fmt 4.6, Leading zero omitted, Abs format (unit mm)*
G04 Created by KiCad (PCBNEW 10.0.3) date 2026-09-19 14:13:58*
%MOMM*%
%LPD*%
G01*
G04 APERTURE LIST*
%ADD10R,1.600000X0.850000*%
%ADD11C,1.700000*%
%ADD12C,4.000000*%
%ADD13C,2.200000*%
%ADD14R,3.500000X1.700000*%
%ADD15O,3.600000X1.700000*%
%ADD16O,3.700000X1.700000*%
G04 APERTURE END LIST*
D10*
%TO.C,D1*%
X135731250Y-103025000D03*
X135731250Y-104775000D03*
X139231250Y-104775000D03*
X139231250Y-103025000D03*
%TD*%
D11*
%TO.C,SW1*%
X152082500Y-109537500D03*
D12*
X157162500Y-109537500D03*
D11*
X162242500Y-109537500D03*
D13*
X159702500Y-104457500D03*
X153352500Y-106997500D03*
%TD*%
D11*
%TO.C,SW3*%
X152082500Y-128587500D03*
D12*
X157162500Y-128587500D03*
D11*
X162242500Y-128587500D03*
D13*
X159702500Y-123507500D03*
X153352500Y-126047500D03*
%TD*%
D10*
%TO.C,D2*%
X135731250Y-108145000D03*
X135731250Y-109895000D03*
X139231250Y-109895000D03*
X139231250Y-108145000D03*
%TD*%
D11*
%TO.C,SW2*%
X171132500Y-128587500D03*
D12*
X176212500Y-128587500D03*
D11*
X181292500Y-128587500D03*
D13*
X178752500Y-123507500D03*
X172402500Y-126047500D03*
%TD*%
D11*
%TO.C,SW4*%
X133032500Y-128587500D03*
D12*
X138112500Y-128587500D03*
D11*
X143192500Y-128587500D03*
D13*
X140652500Y-123507500D03*
X134302500Y-126047500D03*
%TD*%
D14*
%TO.C,U1*%
X169968750Y-99536250D03*
D15*
X169968750Y-102076250D03*
X169968750Y-104616250D03*
X169968750Y-107156250D03*
X169968750Y-109696250D03*
X169968750Y-112236250D03*
X169968750Y-114776250D03*
X187218750Y-114776250D03*
X187218750Y-112236250D03*
X187218750Y-109696250D03*
D16*
X187218750Y-107156250D03*
X187218750Y-104616250D03*
X187218750Y-102076250D03*
X187218750Y-99536250D03*
%TD*%
M02*
