M48
; DRILL file KiCad 10.0.3 date 2026-09-19T14:13:51
; FORMAT={-:-/ absolute / metric / decimal}
; #@! TF.CreationDate,2026-09-19T14:13:51-04:00
; #@! TF.GenerationSoftware,Kicad,Pcbnew,10.0.3
; #@! TF.FileFunction,Plated,1,2,PTH
FMAT,2
METRIC
; #@! TA.AperFunction,Plated,PTH,ViaDrill
T1C0.300
; #@! TA.AperFunction,Plated,PTH,ComponentDrill
T2C1.000
; #@! TA.AperFunction,Plated,PTH,ComponentDrill
T3C1.500
%
G90
G05
T1
X161.6Y-117.4
X166.0Y-117.4
X175.2Y-116.8
X175.2Y-120.2
X178.0Y-117.4
X178.153Y-114.0
X179.6Y-114.0
X180.0Y-117.4
X182.8Y-116.8
X182.8Y-118.0
X184.0Y-108.8
X184.0Y-113.2
T2
X170.969Y-99.536
X170.969Y-102.076
X170.969Y-104.616
X170.969Y-107.156
X170.969Y-109.696
X170.969Y-112.236
X170.969Y-114.776
X186.219Y-99.536
X186.219Y-102.076
X186.219Y-104.616
X186.219Y-107.156
X186.219Y-109.696
X186.219Y-112.236
X186.219Y-114.776
T3
X134.302Y-126.047
X140.653Y-123.507
X153.352Y-106.997
X153.352Y-126.047
X159.702Y-104.457
X159.702Y-123.507
X172.403Y-126.047
X178.752Y-123.507
M30
