%TF.GenerationSoftware,KiCad,Pcbnew,10.0.3*%
%TF.CreationDate,2026-09-19T14:13:58-04:00*%
%TF.ProjectId,hackpad.take.#2,6861636b-7061-4642-9e74-616b652e2332,rev?*%
%TF.SameCoordinates,Original*%
%TF.FileFunction,Copper,L1,Top*%
%TF.FilePolarity,Positive*%
%FSLAX46Y46*%
G04 Gerber Fmt 4.6, Leading zero omitted, Abs format (unit mm)*
G04 Created by KiCad (PCBNEW 10.0.3) date 2026-09-19 14:13:58*
%MOMM*%
%LPD*%
G01*
G04 APERTURE LIST*
%TA.AperFunction,SMDPad,CuDef*%
%ADD10R,1.600000X0.850000*%
%TD*%
%TA.AperFunction,ComponentPad*%
%ADD11C,2.200000*%
%TD*%
%TA.AperFunction,ComponentPad*%
%ADD12R,3.500000X1.700000*%
%TD*%
%TA.AperFunction,ComponentPad*%
%ADD13O,3.600000X1.700000*%
%TD*%
%TA.AperFunction,ComponentPad*%
%ADD14O,3.700000X1.700000*%
%TD*%
%TA.AperFunction,ViaPad*%
%ADD15C,0.600000*%
%TD*%
%TA.AperFunction,Conductor*%
%ADD16C,0.200000*%
%TD*%
G04 APERTURE END LIST*
D10*
%TO.P,D1,1,DOUT_1*%
%TO.N,unconnected-(D1-DOUT-Pad1)*%
X135731250Y-103025000D03*
%TO.P,D1,2,VSS_2*%
%TO.N,GND*%
X135731250Y-104775000D03*
%TO.P,D1,3,DIN_3*%
%TO.N,Net-(D1-DIN)*%
X139231250Y-104775000D03*
%TO.P,D1,4,VDD_4*%
%TO.N,Net-(D1-VDD)*%
X139231250Y-103025000D03*
%TD*%
D11*
%TO.P,SW1,1,1_1*%
%TO.N,GND*%
X159702500Y-104457500D03*
%TO.P,SW1,2,2_2*%
%TO.N,Net-(U1-PB09_A7_D7_RX)*%
X153352500Y-106997500D03*
%TD*%
%TO.P,SW3,1,1_1*%
%TO.N,GND*%
X159702500Y-123507500D03*
%TO.P,SW3,2,2_2*%
%TO.N,Net-(U1-PA5_A9_D9_MISO)*%
X153352500Y-126047500D03*
%TD*%
D10*
%TO.P,D2,1,DOUT_1*%
%TO.N,Net-(D1-DIN)*%
X135731250Y-108145000D03*
%TO.P,D2,2,VSS_2*%
%TO.N,GND*%
X135731250Y-109895000D03*
%TO.P,D2,3,DIN_3*%
%TO.N,Net-(D2-DIN)*%
X139231250Y-109895000D03*
%TO.P,D2,4,VDD_4*%
%TO.N,Net-(D1-VDD)*%
X139231250Y-108145000D03*
%TD*%
D11*
%TO.P,SW2,1,1_1*%
%TO.N,GND*%
X178752500Y-123507500D03*
%TO.P,SW2,2,2_2*%
%TO.N,Net-(U1-PA7_A8_D8_SCK)*%
X172402500Y-126047500D03*
%TD*%
%TO.P,SW4,1,1_1*%
%TO.N,GND*%
X140652500Y-123507500D03*
%TO.P,SW4,2,2_2*%
%TO.N,Net-(U1-PA6_A10_D10_MOSI)*%
X134302500Y-126047500D03*
%TD*%
D12*
%TO.P,U1,1,PA02_A0_D0_1*%
%TO.N,unconnected-(U1-PA02_A0_D0-Pad1)*%
X169968750Y-99536250D03*
D13*
%TO.P,U1,2,PA4_A1_D1_2*%
%TO.N,unconnected-(U1-PA4_A1_D1-Pad2)*%
X169968750Y-102076250D03*
%TO.P,U1,3,PA10_A2_D2_3*%
%TO.N,unconnected-(U1-PA10_A2_D2-Pad3)*%
X169968750Y-104616250D03*
%TO.P,U1,4,PA11_A3_D3_4*%
%TO.N,unconnected-(U1-PA11_A3_D3-Pad4)*%
X169968750Y-107156250D03*
%TO.P,U1,5,PA8_A4_D4_SDA_5*%
%TO.N,Net-(D2-DIN)*%
X169968750Y-109696250D03*
%TO.P,U1,6,PA9_A5_D5_SCL_6*%
%TO.N,unconnected-(U1-PA9_A5_D5_SCL-Pad6)*%
X169968750Y-112236250D03*
%TO.P,U1,7,PB08_A6_D6_TX_7*%
%TO.N,unconnected-(U1-PB08_A6_D6_TX-Pad7)*%
X169968750Y-114776250D03*
%TO.P,U1,8,PB09_A7_D7_RX_8*%
%TO.N,Net-(U1-PB09_A7_D7_RX)*%
X187218750Y-114776250D03*
%TO.P,U1,9,PA7_A8_D8_SCK_9*%
%TO.N,Net-(U1-PA7_A8_D8_SCK)*%
X187218750Y-112236250D03*
%TO.P,U1,10,PA5_A9_D9_MISO_10*%
%TO.N,Net-(U1-PA5_A9_D9_MISO)*%
X187218750Y-109696250D03*
D14*
%TO.P,U1,11,PA6_A10_D10_MOSI_11*%
%TO.N,Net-(U1-PA6_A10_D10_MOSI)*%
X187218750Y-107156250D03*
%TO.P,U1,12,3V3_12*%
%TO.N,unconnected-(U1-3V3-Pad12)*%
X187218750Y-104616250D03*
%TO.P,U1,13,GND_13*%
%TO.N,GND*%
X187218750Y-102076250D03*
%TO.P,U1,14,5V_14*%
%TO.N,Net-(D1-VDD)*%
X187218750Y-99536250D03*
%TD*%
D15*
%TO.N,Net-(U1-PB09_A7_D7_RX)*%
X161600000Y-117400000D03*
X178000000Y-117400000D03*
X180000000Y-117400000D03*
X166000000Y-117400000D03*
%TO.N,Net-(U1-PA5_A9_D9_MISO)*%
X179600000Y-114000000D03*
X175200000Y-116800000D03*
X178152500Y-114000000D03*
X175200000Y-120200000D03*
%TO.N,Net-(U1-PA6_A10_D10_MOSI)*%
X184000000Y-113200000D03*
X182800000Y-116800000D03*
X182800000Y-118000000D03*
X184000000Y-108800000D03*
%TD*%
%TO.N,GND*%
D16*
X159702500Y-104457500D02*
X159702500Y-113702500D01*
X136495000Y-109895000D02*
X145400000Y-118800000D01*
X135731250Y-104775000D02*
X132625000Y-104775000D01*
X132200000Y-117600000D02*
X133400000Y-118800000D01*
X159702500Y-113702500D02*
X164800000Y-118800000D01*
X164800000Y-118800000D02*
X178752500Y-118800000D01*
X145360000Y-118800000D02*
X145400000Y-118800000D01*
X178752500Y-123507500D02*
X178752500Y-118800000D01*
X178752500Y-109542500D02*
X186218750Y-102076250D01*
X133400000Y-118800000D02*
X145360000Y-118800000D01*
X132625000Y-104775000D02*
X132200000Y-105200000D01*
X178752500Y-118800000D02*
X178752500Y-109542500D01*
X159702500Y-123507500D02*
X164410000Y-118800000D01*
X145400000Y-118800000D02*
X164410000Y-118800000D01*
X132200000Y-105200000D02*
X132200000Y-117600000D01*
X140652500Y-123507500D02*
X145360000Y-118800000D01*
X135731250Y-109895000D02*
X136495000Y-109895000D01*
X164410000Y-118800000D02*
X164800000Y-118800000D01*
%TO.N,Net-(D1-VDD)*%
X139231250Y-103025000D02*
X144656250Y-97600000D01*
X139231250Y-108145000D02*
X139231250Y-106968750D01*
X144656250Y-97600000D02*
X184282500Y-97600000D01*
X139625000Y-103025000D02*
X139231250Y-103025000D01*
X184282500Y-97600000D02*
X186218750Y-99536250D01*
X141000000Y-104400000D02*
X139625000Y-103025000D01*
X139231250Y-106968750D02*
X141000000Y-105200000D01*
X141000000Y-105200000D02*
X141000000Y-104400000D01*
%TO.N,Net-(D1-DIN)*%
X135861250Y-108145000D02*
X139231250Y-104775000D01*
X135731250Y-108145000D02*
X135861250Y-108145000D01*
%TO.N,Net-(D2-DIN)*%
X165200000Y-109000000D02*
X165400000Y-109200000D01*
X170472500Y-109200000D02*
X170968750Y-109696250D01*
X165200000Y-100600000D02*
X165200000Y-109000000D01*
X148526250Y-100600000D02*
X165200000Y-100600000D01*
X165400000Y-109200000D02*
X170472500Y-109200000D01*
X139231250Y-109895000D02*
X148526250Y-100600000D01*
%TO.N,Net-(U1-PB09_A7_D7_RX)*%
X153352500Y-106997500D02*
X153352500Y-116647500D01*
X183595000Y-117400000D02*
X186218750Y-114776250D01*
X154105000Y-117400000D02*
X161600000Y-117400000D01*
X153352500Y-116647500D02*
X154105000Y-117400000D01*
X180000000Y-117400000D02*
X183595000Y-117400000D01*
X166000000Y-117400000D02*
X178000000Y-117400000D01*
%TO.N,Net-(U1-PA7_A8_D8_SCK)*%
X182400000Y-120648529D02*
X180151471Y-118400000D01*
X179400000Y-116400000D02*
X183563750Y-112236250D01*
X172402500Y-126047500D02*
X182352500Y-126047500D01*
X180151471Y-118400000D02*
X179400000Y-118400000D01*
X183563750Y-112236250D02*
X186218750Y-112236250D01*
X182352500Y-126047500D02*
X182400000Y-126000000D01*
X179400000Y-118400000D02*
X179400000Y-116400000D01*
X182400000Y-126000000D02*
X182400000Y-120648529D01*
%TO.N,Net-(U1-PA5_A9_D9_MISO)*%
X153352500Y-126047500D02*
X163152500Y-126047500D01*
X169000000Y-120200000D02*
X175200000Y-120200000D01*
X175200000Y-116800000D02*
X178000000Y-114000000D01*
X178000000Y-114000000D02*
X178152500Y-114000000D01*
X183903750Y-109696250D02*
X186218750Y-109696250D01*
X163152500Y-126047500D02*
X169000000Y-120200000D01*
X179600000Y-114000000D02*
X183903750Y-109696250D01*
%TO.N,Net-(U1-PA6_A10_D10_MOSI)*%
X134302500Y-126047500D02*
X148152500Y-126047500D01*
X148400000Y-136200000D02*
X183600000Y-136200000D01*
X148200000Y-126000000D02*
X148200000Y-136000000D01*
X182800000Y-116800000D02*
X184000000Y-115600000D01*
X184000000Y-108800000D02*
X184000000Y-108000000D01*
X148200000Y-136000000D02*
X148400000Y-136200000D01*
X184000000Y-115600000D02*
X184000000Y-113200000D01*
X184600000Y-120600000D02*
X182800000Y-118800000D01*
X182800000Y-118800000D02*
X182800000Y-118000000D01*
X148152500Y-126047500D02*
X148200000Y-126000000D01*
X184000000Y-108000000D02*
X184843750Y-107156250D01*
X183600000Y-136200000D02*
X184600000Y-135200000D01*
X184600000Y-135200000D02*
X184600000Y-120600000D01*
X184843750Y-107156250D02*
X186218750Y-107156250D01*
%TD*%
M02*
