%TF.GenerationSoftware,KiCad,Pcbnew,10.0.3*%
%TF.CreationDate,2026-09-19T14:13:58-04:00*%
%TF.ProjectId,hackpad.take.#2,6861636b-7061-4642-9e74-616b652e2332,rev?*%
%TF.SameCoordinates,Original*%
%TF.FileFunction,Legend,Top*%
%TF.FilePolarity,Positive*%
%FSLAX46Y46*%
G04 Gerber Fmt 4.6, Leading zero omitted, Abs format (unit mm)*
G04 Created by KiCad (PCBNEW 10.0.3) date 2026-09-19 14:13:58*
%MOMM*%
%LPD*%
G01*
G04 APERTURE LIST*
%ADD10C,0.100000*%
%ADD11C,0.300000*%
%ADD12C,0.150000*%
%ADD13C,0.101600*%
%ADD14C,0.120000*%
%ADD15C,0.127000*%
%ADD16C,0.254000*%
%ADD17C,0.025400*%
G04 APERTURE END LIST*
D10*
X174208646Y-109072419D02*
X174875312Y-110072419D01*
X174875312Y-109072419D02*
X174208646Y-110072419D01*
X175256265Y-110072419D02*
X175256265Y-109072419D01*
X175684836Y-109786704D02*
X176161026Y-109786704D01*
X175589598Y-110072419D02*
X175922931Y-109072419D01*
X175922931Y-109072419D02*
X176256264Y-110072419D01*
X176780074Y-109072419D02*
X176970550Y-109072419D01*
X176970550Y-109072419D02*
X177065788Y-109120038D01*
X177065788Y-109120038D02*
X177161026Y-109215276D01*
X177161026Y-109215276D02*
X177208645Y-109405752D01*
X177208645Y-109405752D02*
X177208645Y-109739085D01*
X177208645Y-109739085D02*
X177161026Y-109929561D01*
X177161026Y-109929561D02*
X177065788Y-110024800D01*
X177065788Y-110024800D02*
X176970550Y-110072419D01*
X176970550Y-110072419D02*
X176780074Y-110072419D01*
X176780074Y-110072419D02*
X176684836Y-110024800D01*
X176684836Y-110024800D02*
X176589598Y-109929561D01*
X176589598Y-109929561D02*
X176541979Y-109739085D01*
X176541979Y-109739085D02*
X176541979Y-109405752D01*
X176541979Y-109405752D02*
X176589598Y-109215276D01*
X176589598Y-109215276D02*
X176684836Y-109120038D01*
X176684836Y-109120038D02*
X176780074Y-109072419D01*
X179922932Y-110072419D02*
X179922932Y-109072419D01*
X179922932Y-109548609D02*
X180494360Y-109548609D01*
X180494360Y-110072419D02*
X180494360Y-109072419D01*
X180970551Y-109548609D02*
X181303884Y-109548609D01*
X181446741Y-110072419D02*
X180970551Y-110072419D01*
X180970551Y-110072419D02*
X180970551Y-109072419D01*
X180970551Y-109072419D02*
X181446741Y-109072419D01*
X182446741Y-110072419D02*
X182113408Y-109596228D01*
X181875313Y-110072419D02*
X181875313Y-109072419D01*
X181875313Y-109072419D02*
X182256265Y-109072419D01*
X182256265Y-109072419D02*
X182351503Y-109120038D01*
X182351503Y-109120038D02*
X182399122Y-109167657D01*
X182399122Y-109167657D02*
X182446741Y-109262895D01*
X182446741Y-109262895D02*
X182446741Y-109405752D01*
X182446741Y-109405752D02*
X182399122Y-109500990D01*
X182399122Y-109500990D02*
X182351503Y-109548609D01*
X182351503Y-109548609D02*
X182256265Y-109596228D01*
X182256265Y-109596228D02*
X181875313Y-109596228D01*
X182875313Y-109548609D02*
X183208646Y-109548609D01*
X183351503Y-110072419D02*
X182875313Y-110072419D01*
X182875313Y-110072419D02*
X182875313Y-109072419D01*
X182875313Y-109072419D02*
X183351503Y-109072419D01*
D11*
X127740225Y-96542425D02*
X127597368Y-96470996D01*
X127597368Y-96470996D02*
X127383082Y-96470996D01*
X127383082Y-96470996D02*
X127168796Y-96542425D01*
X127168796Y-96542425D02*
X127025939Y-96685282D01*
X127025939Y-96685282D02*
X126954510Y-96828139D01*
X126954510Y-96828139D02*
X126883082Y-97113853D01*
X126883082Y-97113853D02*
X126883082Y-97328139D01*
X126883082Y-97328139D02*
X126954510Y-97613853D01*
X126954510Y-97613853D02*
X127025939Y-97756710D01*
X127025939Y-97756710D02*
X127168796Y-97899568D01*
X127168796Y-97899568D02*
X127383082Y-97970996D01*
X127383082Y-97970996D02*
X127525939Y-97970996D01*
X127525939Y-97970996D02*
X127740225Y-97899568D01*
X127740225Y-97899568D02*
X127811653Y-97828139D01*
X127811653Y-97828139D02*
X127811653Y-97328139D01*
X127811653Y-97328139D02*
X127525939Y-97328139D01*
X128454510Y-97970996D02*
X128454510Y-96970996D01*
X128454510Y-97256710D02*
X128525939Y-97113853D01*
X128525939Y-97113853D02*
X128597368Y-97042425D01*
X128597368Y-97042425D02*
X128740225Y-96970996D01*
X128740225Y-96970996D02*
X128883082Y-96970996D01*
X129383081Y-96970996D02*
X129383081Y-97970996D01*
X129383081Y-97113853D02*
X129454510Y-97042425D01*
X129454510Y-97042425D02*
X129597367Y-96970996D01*
X129597367Y-96970996D02*
X129811653Y-96970996D01*
X129811653Y-96970996D02*
X129954510Y-97042425D01*
X129954510Y-97042425D02*
X130025939Y-97185282D01*
X130025939Y-97185282D02*
X130025939Y-97970996D01*
X130954510Y-97970996D02*
X130811653Y-97899568D01*
X130811653Y-97899568D02*
X130740224Y-97756710D01*
X130740224Y-97756710D02*
X130740224Y-96470996D01*
X131525938Y-97970996D02*
X131525938Y-96970996D01*
X131525938Y-96470996D02*
X131454510Y-96542425D01*
X131454510Y-96542425D02*
X131525938Y-96613853D01*
X131525938Y-96613853D02*
X131597367Y-96542425D01*
X131597367Y-96542425D02*
X131525938Y-96470996D01*
X131525938Y-96470996D02*
X131525938Y-96613853D01*
X132097367Y-96970996D02*
X132883082Y-96970996D01*
X132883082Y-96970996D02*
X132097367Y-97970996D01*
X132097367Y-97970996D02*
X132883082Y-97970996D01*
X134097368Y-97970996D02*
X134097368Y-97185282D01*
X134097368Y-97185282D02*
X134025939Y-97042425D01*
X134025939Y-97042425D02*
X133883082Y-96970996D01*
X133883082Y-96970996D02*
X133597368Y-96970996D01*
X133597368Y-96970996D02*
X133454510Y-97042425D01*
X134097368Y-97899568D02*
X133954510Y-97970996D01*
X133954510Y-97970996D02*
X133597368Y-97970996D01*
X133597368Y-97970996D02*
X133454510Y-97899568D01*
X133454510Y-97899568D02*
X133383082Y-97756710D01*
X133383082Y-97756710D02*
X133383082Y-97613853D01*
X133383082Y-97613853D02*
X133454510Y-97470996D01*
X133454510Y-97470996D02*
X133597368Y-97399568D01*
X133597368Y-97399568D02*
X133954510Y-97399568D01*
X133954510Y-97399568D02*
X134097368Y-97328139D01*
X134811653Y-97970996D02*
X134811653Y-96970996D01*
X134811653Y-97256710D02*
X134883082Y-97113853D01*
X134883082Y-97113853D02*
X134954511Y-97042425D01*
X134954511Y-97042425D02*
X135097368Y-96970996D01*
X135097368Y-96970996D02*
X135240225Y-96970996D01*
X136383082Y-97970996D02*
X136383082Y-96470996D01*
X136383082Y-97899568D02*
X136240224Y-97970996D01*
X136240224Y-97970996D02*
X135954510Y-97970996D01*
X135954510Y-97970996D02*
X135811653Y-97899568D01*
X135811653Y-97899568D02*
X135740224Y-97828139D01*
X135740224Y-97828139D02*
X135668796Y-97685282D01*
X135668796Y-97685282D02*
X135668796Y-97256710D01*
X135668796Y-97256710D02*
X135740224Y-97113853D01*
X135740224Y-97113853D02*
X135811653Y-97042425D01*
X135811653Y-97042425D02*
X135954510Y-96970996D01*
X135954510Y-96970996D02*
X136240224Y-96970996D01*
X136240224Y-96970996D02*
X136383082Y-97042425D01*
X137168796Y-96470996D02*
X137025939Y-96756710D01*
X137740225Y-97899568D02*
X137883082Y-97970996D01*
X137883082Y-97970996D02*
X138168796Y-97970996D01*
X138168796Y-97970996D02*
X138311653Y-97899568D01*
X138311653Y-97899568D02*
X138383082Y-97756710D01*
X138383082Y-97756710D02*
X138383082Y-97685282D01*
X138383082Y-97685282D02*
X138311653Y-97542425D01*
X138311653Y-97542425D02*
X138168796Y-97470996D01*
X138168796Y-97470996D02*
X137954511Y-97470996D01*
X137954511Y-97470996D02*
X137811653Y-97399568D01*
X137811653Y-97399568D02*
X137740225Y-97256710D01*
X137740225Y-97256710D02*
X137740225Y-97185282D01*
X137740225Y-97185282D02*
X137811653Y-97042425D01*
X137811653Y-97042425D02*
X137954511Y-96970996D01*
X137954511Y-96970996D02*
X138168796Y-96970996D01*
X138168796Y-96970996D02*
X138311653Y-97042425D01*
X126954510Y-100385912D02*
X126954510Y-98885912D01*
X127597368Y-100385912D02*
X127597368Y-99600198D01*
X127597368Y-99600198D02*
X127525939Y-99457341D01*
X127525939Y-99457341D02*
X127383082Y-99385912D01*
X127383082Y-99385912D02*
X127168796Y-99385912D01*
X127168796Y-99385912D02*
X127025939Y-99457341D01*
X127025939Y-99457341D02*
X126954510Y-99528769D01*
X128954511Y-100385912D02*
X128954511Y-99600198D01*
X128954511Y-99600198D02*
X128883082Y-99457341D01*
X128883082Y-99457341D02*
X128740225Y-99385912D01*
X128740225Y-99385912D02*
X128454511Y-99385912D01*
X128454511Y-99385912D02*
X128311653Y-99457341D01*
X128954511Y-100314484D02*
X128811653Y-100385912D01*
X128811653Y-100385912D02*
X128454511Y-100385912D01*
X128454511Y-100385912D02*
X128311653Y-100314484D01*
X128311653Y-100314484D02*
X128240225Y-100171626D01*
X128240225Y-100171626D02*
X128240225Y-100028769D01*
X128240225Y-100028769D02*
X128311653Y-99885912D01*
X128311653Y-99885912D02*
X128454511Y-99814484D01*
X128454511Y-99814484D02*
X128811653Y-99814484D01*
X128811653Y-99814484D02*
X128954511Y-99743055D01*
X130311654Y-100314484D02*
X130168796Y-100385912D01*
X130168796Y-100385912D02*
X129883082Y-100385912D01*
X129883082Y-100385912D02*
X129740225Y-100314484D01*
X129740225Y-100314484D02*
X129668796Y-100243055D01*
X129668796Y-100243055D02*
X129597368Y-100100198D01*
X129597368Y-100100198D02*
X129597368Y-99671626D01*
X129597368Y-99671626D02*
X129668796Y-99528769D01*
X129668796Y-99528769D02*
X129740225Y-99457341D01*
X129740225Y-99457341D02*
X129883082Y-99385912D01*
X129883082Y-99385912D02*
X130168796Y-99385912D01*
X130168796Y-99385912D02*
X130311654Y-99457341D01*
X130954510Y-100385912D02*
X130954510Y-98885912D01*
X131097368Y-99814484D02*
X131525939Y-100385912D01*
X131525939Y-99385912D02*
X130954510Y-99957341D01*
X132168796Y-99385912D02*
X132168796Y-100885912D01*
X132168796Y-99457341D02*
X132311654Y-99385912D01*
X132311654Y-99385912D02*
X132597368Y-99385912D01*
X132597368Y-99385912D02*
X132740225Y-99457341D01*
X132740225Y-99457341D02*
X132811654Y-99528769D01*
X132811654Y-99528769D02*
X132883082Y-99671626D01*
X132883082Y-99671626D02*
X132883082Y-100100198D01*
X132883082Y-100100198D02*
X132811654Y-100243055D01*
X132811654Y-100243055D02*
X132740225Y-100314484D01*
X132740225Y-100314484D02*
X132597368Y-100385912D01*
X132597368Y-100385912D02*
X132311654Y-100385912D01*
X132311654Y-100385912D02*
X132168796Y-100314484D01*
X134168797Y-100385912D02*
X134168797Y-99600198D01*
X134168797Y-99600198D02*
X134097368Y-99457341D01*
X134097368Y-99457341D02*
X133954511Y-99385912D01*
X133954511Y-99385912D02*
X133668797Y-99385912D01*
X133668797Y-99385912D02*
X133525939Y-99457341D01*
X134168797Y-100314484D02*
X134025939Y-100385912D01*
X134025939Y-100385912D02*
X133668797Y-100385912D01*
X133668797Y-100385912D02*
X133525939Y-100314484D01*
X133525939Y-100314484D02*
X133454511Y-100171626D01*
X133454511Y-100171626D02*
X133454511Y-100028769D01*
X133454511Y-100028769D02*
X133525939Y-99885912D01*
X133525939Y-99885912D02*
X133668797Y-99814484D01*
X133668797Y-99814484D02*
X134025939Y-99814484D01*
X134025939Y-99814484D02*
X134168797Y-99743055D01*
X135525940Y-100385912D02*
X135525940Y-98885912D01*
X135525940Y-100314484D02*
X135383082Y-100385912D01*
X135383082Y-100385912D02*
X135097368Y-100385912D01*
X135097368Y-100385912D02*
X134954511Y-100314484D01*
X134954511Y-100314484D02*
X134883082Y-100243055D01*
X134883082Y-100243055D02*
X134811654Y-100100198D01*
X134811654Y-100100198D02*
X134811654Y-99671626D01*
X134811654Y-99671626D02*
X134883082Y-99528769D01*
X134883082Y-99528769D02*
X134954511Y-99457341D01*
X134954511Y-99457341D02*
X135097368Y-99385912D01*
X135097368Y-99385912D02*
X135383082Y-99385912D01*
X135383082Y-99385912D02*
X135525940Y-99457341D01*
X136240225Y-100243055D02*
X136311654Y-100314484D01*
X136311654Y-100314484D02*
X136240225Y-100385912D01*
X136240225Y-100385912D02*
X136168797Y-100314484D01*
X136168797Y-100314484D02*
X136240225Y-100243055D01*
X136240225Y-100243055D02*
X136240225Y-100385912D01*
X136240225Y-99814484D02*
X136168797Y-98957341D01*
X136168797Y-98957341D02*
X136240225Y-98885912D01*
X136240225Y-98885912D02*
X136311654Y-98957341D01*
X136311654Y-98957341D02*
X136240225Y-99814484D01*
X136240225Y-99814484D02*
X136240225Y-98885912D01*
X126954510Y-102657971D02*
X127025939Y-102729400D01*
X127025939Y-102729400D02*
X126954510Y-102800828D01*
X126954510Y-102800828D02*
X126883082Y-102729400D01*
X126883082Y-102729400D02*
X126954510Y-102657971D01*
X126954510Y-102657971D02*
X126954510Y-102800828D01*
X126954510Y-101872257D02*
X127025939Y-101943685D01*
X127025939Y-101943685D02*
X126954510Y-102015114D01*
X126954510Y-102015114D02*
X126883082Y-101943685D01*
X126883082Y-101943685D02*
X126954510Y-101872257D01*
X126954510Y-101872257D02*
X126954510Y-102015114D01*
X127525939Y-101300828D02*
X128454511Y-101300828D01*
X128454511Y-101300828D02*
X127954511Y-101872257D01*
X127954511Y-101872257D02*
X128168796Y-101872257D01*
X128168796Y-101872257D02*
X128311654Y-101943685D01*
X128311654Y-101943685D02*
X128383082Y-102015114D01*
X128383082Y-102015114D02*
X128454511Y-102157971D01*
X128454511Y-102157971D02*
X128454511Y-102515114D01*
X128454511Y-102515114D02*
X128383082Y-102657971D01*
X128383082Y-102657971D02*
X128311654Y-102729400D01*
X128311654Y-102729400D02*
X128168796Y-102800828D01*
X128168796Y-102800828D02*
X127740225Y-102800828D01*
X127740225Y-102800828D02*
X127597368Y-102729400D01*
X127597368Y-102729400D02*
X127525939Y-102657971D01*
D12*
X136743155Y-101604819D02*
X136743155Y-100604819D01*
X136743155Y-100604819D02*
X136981250Y-100604819D01*
X136981250Y-100604819D02*
X137124107Y-100652438D01*
X137124107Y-100652438D02*
X137219345Y-100747676D01*
X137219345Y-100747676D02*
X137266964Y-100842914D01*
X137266964Y-100842914D02*
X137314583Y-101033390D01*
X137314583Y-101033390D02*
X137314583Y-101176247D01*
X137314583Y-101176247D02*
X137266964Y-101366723D01*
X137266964Y-101366723D02*
X137219345Y-101461961D01*
X137219345Y-101461961D02*
X137124107Y-101557200D01*
X137124107Y-101557200D02*
X136981250Y-101604819D01*
X136981250Y-101604819D02*
X136743155Y-101604819D01*
X138266964Y-101604819D02*
X137695536Y-101604819D01*
X137981250Y-101604819D02*
X137981250Y-100604819D01*
X137981250Y-100604819D02*
X137886012Y-100747676D01*
X137886012Y-100747676D02*
X137790774Y-100842914D01*
X137790774Y-100842914D02*
X137695536Y-100890533D01*
X134509821Y-103387295D02*
X134052678Y-103387295D01*
X134281250Y-103387295D02*
X134281250Y-102587295D01*
X134281250Y-102587295D02*
X134205059Y-102701580D01*
X134205059Y-102701580D02*
X134128869Y-102777771D01*
X134128869Y-102777771D02*
X134052678Y-102815866D01*
X155829167Y-102070700D02*
X155972024Y-102118319D01*
X155972024Y-102118319D02*
X156210119Y-102118319D01*
X156210119Y-102118319D02*
X156305357Y-102070700D01*
X156305357Y-102070700D02*
X156352976Y-102023080D01*
X156352976Y-102023080D02*
X156400595Y-101927842D01*
X156400595Y-101927842D02*
X156400595Y-101832604D01*
X156400595Y-101832604D02*
X156352976Y-101737366D01*
X156352976Y-101737366D02*
X156305357Y-101689747D01*
X156305357Y-101689747D02*
X156210119Y-101642128D01*
X156210119Y-101642128D02*
X156019643Y-101594509D01*
X156019643Y-101594509D02*
X155924405Y-101546890D01*
X155924405Y-101546890D02*
X155876786Y-101499271D01*
X155876786Y-101499271D02*
X155829167Y-101404033D01*
X155829167Y-101404033D02*
X155829167Y-101308795D01*
X155829167Y-101308795D02*
X155876786Y-101213557D01*
X155876786Y-101213557D02*
X155924405Y-101165938D01*
X155924405Y-101165938D02*
X156019643Y-101118319D01*
X156019643Y-101118319D02*
X156257738Y-101118319D01*
X156257738Y-101118319D02*
X156400595Y-101165938D01*
X156733929Y-101118319D02*
X156972024Y-102118319D01*
X156972024Y-102118319D02*
X157162500Y-101404033D01*
X157162500Y-101404033D02*
X157352976Y-102118319D01*
X157352976Y-102118319D02*
X157591072Y-101118319D01*
X158495833Y-102118319D02*
X157924405Y-102118319D01*
X158210119Y-102118319D02*
X158210119Y-101118319D01*
X158210119Y-101118319D02*
X158114881Y-101261176D01*
X158114881Y-101261176D02*
X158019643Y-101356414D01*
X158019643Y-101356414D02*
X157924405Y-101404033D01*
X155829167Y-121120700D02*
X155972024Y-121168319D01*
X155972024Y-121168319D02*
X156210119Y-121168319D01*
X156210119Y-121168319D02*
X156305357Y-121120700D01*
X156305357Y-121120700D02*
X156352976Y-121073080D01*
X156352976Y-121073080D02*
X156400595Y-120977842D01*
X156400595Y-120977842D02*
X156400595Y-120882604D01*
X156400595Y-120882604D02*
X156352976Y-120787366D01*
X156352976Y-120787366D02*
X156305357Y-120739747D01*
X156305357Y-120739747D02*
X156210119Y-120692128D01*
X156210119Y-120692128D02*
X156019643Y-120644509D01*
X156019643Y-120644509D02*
X155924405Y-120596890D01*
X155924405Y-120596890D02*
X155876786Y-120549271D01*
X155876786Y-120549271D02*
X155829167Y-120454033D01*
X155829167Y-120454033D02*
X155829167Y-120358795D01*
X155829167Y-120358795D02*
X155876786Y-120263557D01*
X155876786Y-120263557D02*
X155924405Y-120215938D01*
X155924405Y-120215938D02*
X156019643Y-120168319D01*
X156019643Y-120168319D02*
X156257738Y-120168319D01*
X156257738Y-120168319D02*
X156400595Y-120215938D01*
X156733929Y-120168319D02*
X156972024Y-121168319D01*
X156972024Y-121168319D02*
X157162500Y-120454033D01*
X157162500Y-120454033D02*
X157352976Y-121168319D01*
X157352976Y-121168319D02*
X157591072Y-120168319D01*
X157876786Y-120168319D02*
X158495833Y-120168319D01*
X158495833Y-120168319D02*
X158162500Y-120549271D01*
X158162500Y-120549271D02*
X158305357Y-120549271D01*
X158305357Y-120549271D02*
X158400595Y-120596890D01*
X158400595Y-120596890D02*
X158448214Y-120644509D01*
X158448214Y-120644509D02*
X158495833Y-120739747D01*
X158495833Y-120739747D02*
X158495833Y-120977842D01*
X158495833Y-120977842D02*
X158448214Y-121073080D01*
X158448214Y-121073080D02*
X158400595Y-121120700D01*
X158400595Y-121120700D02*
X158305357Y-121168319D01*
X158305357Y-121168319D02*
X158019643Y-121168319D01*
X158019643Y-121168319D02*
X157924405Y-121120700D01*
X157924405Y-121120700D02*
X157876786Y-121073080D01*
X136743155Y-106724819D02*
X136743155Y-105724819D01*
X136743155Y-105724819D02*
X136981250Y-105724819D01*
X136981250Y-105724819D02*
X137124107Y-105772438D01*
X137124107Y-105772438D02*
X137219345Y-105867676D01*
X137219345Y-105867676D02*
X137266964Y-105962914D01*
X137266964Y-105962914D02*
X137314583Y-106153390D01*
X137314583Y-106153390D02*
X137314583Y-106296247D01*
X137314583Y-106296247D02*
X137266964Y-106486723D01*
X137266964Y-106486723D02*
X137219345Y-106581961D01*
X137219345Y-106581961D02*
X137124107Y-106677200D01*
X137124107Y-106677200D02*
X136981250Y-106724819D01*
X136981250Y-106724819D02*
X136743155Y-106724819D01*
X137695536Y-105820057D02*
X137743155Y-105772438D01*
X137743155Y-105772438D02*
X137838393Y-105724819D01*
X137838393Y-105724819D02*
X138076488Y-105724819D01*
X138076488Y-105724819D02*
X138171726Y-105772438D01*
X138171726Y-105772438D02*
X138219345Y-105820057D01*
X138219345Y-105820057D02*
X138266964Y-105915295D01*
X138266964Y-105915295D02*
X138266964Y-106010533D01*
X138266964Y-106010533D02*
X138219345Y-106153390D01*
X138219345Y-106153390D02*
X137647917Y-106724819D01*
X137647917Y-106724819D02*
X138266964Y-106724819D01*
X134509821Y-108507295D02*
X134052678Y-108507295D01*
X134281250Y-108507295D02*
X134281250Y-107707295D01*
X134281250Y-107707295D02*
X134205059Y-107821580D01*
X134205059Y-107821580D02*
X134128869Y-107897771D01*
X134128869Y-107897771D02*
X134052678Y-107935866D01*
X174879167Y-121120700D02*
X175022024Y-121168319D01*
X175022024Y-121168319D02*
X175260119Y-121168319D01*
X175260119Y-121168319D02*
X175355357Y-121120700D01*
X175355357Y-121120700D02*
X175402976Y-121073080D01*
X175402976Y-121073080D02*
X175450595Y-120977842D01*
X175450595Y-120977842D02*
X175450595Y-120882604D01*
X175450595Y-120882604D02*
X175402976Y-120787366D01*
X175402976Y-120787366D02*
X175355357Y-120739747D01*
X175355357Y-120739747D02*
X175260119Y-120692128D01*
X175260119Y-120692128D02*
X175069643Y-120644509D01*
X175069643Y-120644509D02*
X174974405Y-120596890D01*
X174974405Y-120596890D02*
X174926786Y-120549271D01*
X174926786Y-120549271D02*
X174879167Y-120454033D01*
X174879167Y-120454033D02*
X174879167Y-120358795D01*
X174879167Y-120358795D02*
X174926786Y-120263557D01*
X174926786Y-120263557D02*
X174974405Y-120215938D01*
X174974405Y-120215938D02*
X175069643Y-120168319D01*
X175069643Y-120168319D02*
X175307738Y-120168319D01*
X175307738Y-120168319D02*
X175450595Y-120215938D01*
X175783929Y-120168319D02*
X176022024Y-121168319D01*
X176022024Y-121168319D02*
X176212500Y-120454033D01*
X176212500Y-120454033D02*
X176402976Y-121168319D01*
X176402976Y-121168319D02*
X176641072Y-120168319D01*
X176974405Y-120263557D02*
X177022024Y-120215938D01*
X177022024Y-120215938D02*
X177117262Y-120168319D01*
X177117262Y-120168319D02*
X177355357Y-120168319D01*
X177355357Y-120168319D02*
X177450595Y-120215938D01*
X177450595Y-120215938D02*
X177498214Y-120263557D01*
X177498214Y-120263557D02*
X177545833Y-120358795D01*
X177545833Y-120358795D02*
X177545833Y-120454033D01*
X177545833Y-120454033D02*
X177498214Y-120596890D01*
X177498214Y-120596890D02*
X176926786Y-121168319D01*
X176926786Y-121168319D02*
X177545833Y-121168319D01*
X136779167Y-121120700D02*
X136922024Y-121168319D01*
X136922024Y-121168319D02*
X137160119Y-121168319D01*
X137160119Y-121168319D02*
X137255357Y-121120700D01*
X137255357Y-121120700D02*
X137302976Y-121073080D01*
X137302976Y-121073080D02*
X137350595Y-120977842D01*
X137350595Y-120977842D02*
X137350595Y-120882604D01*
X137350595Y-120882604D02*
X137302976Y-120787366D01*
X137302976Y-120787366D02*
X137255357Y-120739747D01*
X137255357Y-120739747D02*
X137160119Y-120692128D01*
X137160119Y-120692128D02*
X136969643Y-120644509D01*
X136969643Y-120644509D02*
X136874405Y-120596890D01*
X136874405Y-120596890D02*
X136826786Y-120549271D01*
X136826786Y-120549271D02*
X136779167Y-120454033D01*
X136779167Y-120454033D02*
X136779167Y-120358795D01*
X136779167Y-120358795D02*
X136826786Y-120263557D01*
X136826786Y-120263557D02*
X136874405Y-120215938D01*
X136874405Y-120215938D02*
X136969643Y-120168319D01*
X136969643Y-120168319D02*
X137207738Y-120168319D01*
X137207738Y-120168319D02*
X137350595Y-120215938D01*
X137683929Y-120168319D02*
X137922024Y-121168319D01*
X137922024Y-121168319D02*
X138112500Y-120454033D01*
X138112500Y-120454033D02*
X138302976Y-121168319D01*
X138302976Y-121168319D02*
X138541072Y-120168319D01*
X139350595Y-120501652D02*
X139350595Y-121168319D01*
X139112500Y-120120700D02*
X138874405Y-120834985D01*
X138874405Y-120834985D02*
X139493452Y-120834985D01*
D13*
X177916416Y-109213235D02*
X177916416Y-109932902D01*
X177916416Y-109932902D02*
X177958750Y-110017568D01*
X177958750Y-110017568D02*
X178001083Y-110059902D01*
X178001083Y-110059902D02*
X178085750Y-110102235D01*
X178085750Y-110102235D02*
X178255083Y-110102235D01*
X178255083Y-110102235D02*
X178339750Y-110059902D01*
X178339750Y-110059902D02*
X178382083Y-110017568D01*
X178382083Y-110017568D02*
X178424416Y-109932902D01*
X178424416Y-109932902D02*
X178424416Y-109213235D01*
X179313416Y-110102235D02*
X178805416Y-110102235D01*
X179059416Y-110102235D02*
X179059416Y-109213235D01*
X179059416Y-109213235D02*
X178974749Y-109340235D01*
X178974749Y-109340235D02*
X178890083Y-109424902D01*
X178890083Y-109424902D02*
X178805416Y-109467235D01*
D12*
X173831845Y-106063450D02*
X173974702Y-106111069D01*
X173974702Y-106111069D02*
X174212797Y-106111069D01*
X174212797Y-106111069D02*
X174308035Y-106063450D01*
X174308035Y-106063450D02*
X174355654Y-106015830D01*
X174355654Y-106015830D02*
X174403273Y-105920592D01*
X174403273Y-105920592D02*
X174403273Y-105825354D01*
X174403273Y-105825354D02*
X174355654Y-105730116D01*
X174355654Y-105730116D02*
X174308035Y-105682497D01*
X174308035Y-105682497D02*
X174212797Y-105634878D01*
X174212797Y-105634878D02*
X174022321Y-105587259D01*
X174022321Y-105587259D02*
X173927083Y-105539640D01*
X173927083Y-105539640D02*
X173879464Y-105492021D01*
X173879464Y-105492021D02*
X173831845Y-105396783D01*
X173831845Y-105396783D02*
X173831845Y-105301545D01*
X173831845Y-105301545D02*
X173879464Y-105206307D01*
X173879464Y-105206307D02*
X173927083Y-105158688D01*
X173927083Y-105158688D02*
X174022321Y-105111069D01*
X174022321Y-105111069D02*
X174260416Y-105111069D01*
X174260416Y-105111069D02*
X174403273Y-105158688D01*
X175212797Y-106063450D02*
X175117559Y-106111069D01*
X175117559Y-106111069D02*
X174927083Y-106111069D01*
X174927083Y-106111069D02*
X174831845Y-106063450D01*
X174831845Y-106063450D02*
X174784226Y-105968211D01*
X174784226Y-105968211D02*
X174784226Y-105587259D01*
X174784226Y-105587259D02*
X174831845Y-105492021D01*
X174831845Y-105492021D02*
X174927083Y-105444402D01*
X174927083Y-105444402D02*
X175117559Y-105444402D01*
X175117559Y-105444402D02*
X175212797Y-105492021D01*
X175212797Y-105492021D02*
X175260416Y-105587259D01*
X175260416Y-105587259D02*
X175260416Y-105682497D01*
X175260416Y-105682497D02*
X174784226Y-105777735D01*
X176069940Y-106063450D02*
X175974702Y-106111069D01*
X175974702Y-106111069D02*
X175784226Y-106111069D01*
X175784226Y-106111069D02*
X175688988Y-106063450D01*
X175688988Y-106063450D02*
X175641369Y-105968211D01*
X175641369Y-105968211D02*
X175641369Y-105587259D01*
X175641369Y-105587259D02*
X175688988Y-105492021D01*
X175688988Y-105492021D02*
X175784226Y-105444402D01*
X175784226Y-105444402D02*
X175974702Y-105444402D01*
X175974702Y-105444402D02*
X176069940Y-105492021D01*
X176069940Y-105492021D02*
X176117559Y-105587259D01*
X176117559Y-105587259D02*
X176117559Y-105682497D01*
X176117559Y-105682497D02*
X175641369Y-105777735D01*
X176927083Y-106063450D02*
X176831845Y-106111069D01*
X176831845Y-106111069D02*
X176641369Y-106111069D01*
X176641369Y-106111069D02*
X176546131Y-106063450D01*
X176546131Y-106063450D02*
X176498512Y-105968211D01*
X176498512Y-105968211D02*
X176498512Y-105587259D01*
X176498512Y-105587259D02*
X176546131Y-105492021D01*
X176546131Y-105492021D02*
X176641369Y-105444402D01*
X176641369Y-105444402D02*
X176831845Y-105444402D01*
X176831845Y-105444402D02*
X176927083Y-105492021D01*
X176927083Y-105492021D02*
X176974702Y-105587259D01*
X176974702Y-105587259D02*
X176974702Y-105682497D01*
X176974702Y-105682497D02*
X176498512Y-105777735D01*
X177831845Y-106111069D02*
X177831845Y-105111069D01*
X177831845Y-106063450D02*
X177736607Y-106111069D01*
X177736607Y-106111069D02*
X177546131Y-106111069D01*
X177546131Y-106111069D02*
X177450893Y-106063450D01*
X177450893Y-106063450D02*
X177403274Y-106015830D01*
X177403274Y-106015830D02*
X177355655Y-105920592D01*
X177355655Y-105920592D02*
X177355655Y-105634878D01*
X177355655Y-105634878D02*
X177403274Y-105539640D01*
X177403274Y-105539640D02*
X177450893Y-105492021D01*
X177450893Y-105492021D02*
X177546131Y-105444402D01*
X177546131Y-105444402D02*
X177736607Y-105444402D01*
X177736607Y-105444402D02*
X177831845Y-105492021D01*
X179022322Y-106063450D02*
X179165179Y-106111069D01*
X179165179Y-106111069D02*
X179403274Y-106111069D01*
X179403274Y-106111069D02*
X179498512Y-106063450D01*
X179498512Y-106063450D02*
X179546131Y-106015830D01*
X179546131Y-106015830D02*
X179593750Y-105920592D01*
X179593750Y-105920592D02*
X179593750Y-105825354D01*
X179593750Y-105825354D02*
X179546131Y-105730116D01*
X179546131Y-105730116D02*
X179498512Y-105682497D01*
X179498512Y-105682497D02*
X179403274Y-105634878D01*
X179403274Y-105634878D02*
X179212798Y-105587259D01*
X179212798Y-105587259D02*
X179117560Y-105539640D01*
X179117560Y-105539640D02*
X179069941Y-105492021D01*
X179069941Y-105492021D02*
X179022322Y-105396783D01*
X179022322Y-105396783D02*
X179022322Y-105301545D01*
X179022322Y-105301545D02*
X179069941Y-105206307D01*
X179069941Y-105206307D02*
X179117560Y-105158688D01*
X179117560Y-105158688D02*
X179212798Y-105111069D01*
X179212798Y-105111069D02*
X179450893Y-105111069D01*
X179450893Y-105111069D02*
X179593750Y-105158688D01*
X179879465Y-105444402D02*
X180260417Y-105444402D01*
X180022322Y-105111069D02*
X180022322Y-105968211D01*
X180022322Y-105968211D02*
X180069941Y-106063450D01*
X180069941Y-106063450D02*
X180165179Y-106111069D01*
X180165179Y-106111069D02*
X180260417Y-106111069D01*
X181022322Y-105444402D02*
X181022322Y-106111069D01*
X180593751Y-105444402D02*
X180593751Y-105968211D01*
X180593751Y-105968211D02*
X180641370Y-106063450D01*
X180641370Y-106063450D02*
X180736608Y-106111069D01*
X180736608Y-106111069D02*
X180879465Y-106111069D01*
X180879465Y-106111069D02*
X180974703Y-106063450D01*
X180974703Y-106063450D02*
X181022322Y-106015830D01*
X181927084Y-106111069D02*
X181927084Y-105111069D01*
X181927084Y-106063450D02*
X181831846Y-106111069D01*
X181831846Y-106111069D02*
X181641370Y-106111069D01*
X181641370Y-106111069D02*
X181546132Y-106063450D01*
X181546132Y-106063450D02*
X181498513Y-106015830D01*
X181498513Y-106015830D02*
X181450894Y-105920592D01*
X181450894Y-105920592D02*
X181450894Y-105634878D01*
X181450894Y-105634878D02*
X181498513Y-105539640D01*
X181498513Y-105539640D02*
X181546132Y-105492021D01*
X181546132Y-105492021D02*
X181641370Y-105444402D01*
X181641370Y-105444402D02*
X181831846Y-105444402D01*
X181831846Y-105444402D02*
X181927084Y-105492021D01*
X182403275Y-106111069D02*
X182403275Y-105444402D01*
X182403275Y-105111069D02*
X182355656Y-105158688D01*
X182355656Y-105158688D02*
X182403275Y-105206307D01*
X182403275Y-105206307D02*
X182450894Y-105158688D01*
X182450894Y-105158688D02*
X182403275Y-105111069D01*
X182403275Y-105111069D02*
X182403275Y-105206307D01*
X183022322Y-106111069D02*
X182927084Y-106063450D01*
X182927084Y-106063450D02*
X182879465Y-106015830D01*
X182879465Y-106015830D02*
X182831846Y-105920592D01*
X182831846Y-105920592D02*
X182831846Y-105634878D01*
X182831846Y-105634878D02*
X182879465Y-105539640D01*
X182879465Y-105539640D02*
X182927084Y-105492021D01*
X182927084Y-105492021D02*
X183022322Y-105444402D01*
X183022322Y-105444402D02*
X183165179Y-105444402D01*
X183165179Y-105444402D02*
X183260417Y-105492021D01*
X183260417Y-105492021D02*
X183308036Y-105539640D01*
X183308036Y-105539640D02*
X183355655Y-105634878D01*
X183355655Y-105634878D02*
X183355655Y-105920592D01*
X183355655Y-105920592D02*
X183308036Y-106015830D01*
X183308036Y-106015830D02*
X183260417Y-106063450D01*
X183260417Y-106063450D02*
X183165179Y-106111069D01*
X183165179Y-106111069D02*
X183022322Y-106111069D01*
X177069941Y-107111069D02*
X177736607Y-108111069D01*
X177736607Y-107111069D02*
X177069941Y-108111069D01*
X178117560Y-108111069D02*
X178117560Y-107111069D01*
X178546131Y-107825354D02*
X179022321Y-107825354D01*
X178450893Y-108111069D02*
X178784226Y-107111069D01*
X178784226Y-107111069D02*
X179117559Y-108111069D01*
X179641369Y-107111069D02*
X179831845Y-107111069D01*
X179831845Y-107111069D02*
X179927083Y-107158688D01*
X179927083Y-107158688D02*
X180022321Y-107253926D01*
X180022321Y-107253926D02*
X180069940Y-107444402D01*
X180069940Y-107444402D02*
X180069940Y-107777735D01*
X180069940Y-107777735D02*
X180022321Y-107968211D01*
X180022321Y-107968211D02*
X179927083Y-108063450D01*
X179927083Y-108063450D02*
X179831845Y-108111069D01*
X179831845Y-108111069D02*
X179641369Y-108111069D01*
X179641369Y-108111069D02*
X179546131Y-108063450D01*
X179546131Y-108063450D02*
X179450893Y-107968211D01*
X179450893Y-107968211D02*
X179403274Y-107777735D01*
X179403274Y-107777735D02*
X179403274Y-107444402D01*
X179403274Y-107444402D02*
X179450893Y-107253926D01*
X179450893Y-107253926D02*
X179546131Y-107158688D01*
X179546131Y-107158688D02*
X179641369Y-107111069D01*
%TO.C,D1*%
D14*
X134681250Y-101900000D02*
X134681250Y-105900000D01*
X134681250Y-101900000D02*
X140281250Y-101900000D01*
X134681250Y-105900000D02*
X139681250Y-105900000D01*
X140281250Y-105300000D02*
X139681250Y-105900000D01*
X140281250Y-105300000D02*
X140281250Y-101900000D01*
%TO.C,SW1*%
X150177500Y-102552500D02*
X164147500Y-102552500D01*
X150177500Y-116522500D02*
X150177500Y-102552500D01*
X164147500Y-102552500D02*
X164147500Y-116522500D01*
X164147500Y-116522500D02*
X150177500Y-116522500D01*
%TO.C,SW3*%
X150177500Y-121602500D02*
X164147500Y-121602500D01*
X150177500Y-135572500D02*
X150177500Y-121602500D01*
X164147500Y-121602500D02*
X164147500Y-135572500D01*
X164147500Y-135572500D02*
X150177500Y-135572500D01*
%TO.C,D2*%
X134681250Y-107020000D02*
X134681250Y-111020000D01*
X134681250Y-107020000D02*
X140281250Y-107020000D01*
X134681250Y-111020000D02*
X139681250Y-111020000D01*
X140281250Y-110420000D02*
X139681250Y-111020000D01*
X140281250Y-110420000D02*
X140281250Y-107020000D01*
%TO.C,SW2*%
X169227500Y-121602500D02*
X183197500Y-121602500D01*
X169227500Y-135572500D02*
X169227500Y-121602500D01*
X183197500Y-121602500D02*
X183197500Y-135572500D01*
X183197500Y-135572500D02*
X169227500Y-135572500D01*
%TO.C,SW4*%
X131127500Y-121602500D02*
X145097500Y-121602500D01*
X131127500Y-135572500D02*
X131127500Y-121602500D01*
X145097500Y-121602500D02*
X145097500Y-135572500D01*
X145097500Y-135572500D02*
X131127500Y-135572500D01*
%TO.C,U1*%
D15*
X169693750Y-98656250D02*
X169693750Y-115656250D01*
X171693750Y-117656250D02*
X185493750Y-117656250D01*
X174093750Y-95232220D02*
X183093750Y-95232220D01*
X174093750Y-102585520D02*
X174093750Y-95232220D01*
X183093750Y-95232220D02*
X183093750Y-102585520D01*
X183093750Y-102585520D02*
X174093750Y-102585520D01*
X185493750Y-96657160D02*
X171693750Y-96657160D01*
X187493750Y-115656250D02*
X187493750Y-98656250D01*
D14*
X169693750Y-98656250D02*
G75*
G02*
X171693750Y-96656250I2044612J-44612D01*
G01*
X171693750Y-117656250D02*
G75*
G02*
X169693750Y-115656250I44857J2044857D01*
G01*
X185493750Y-96656250D02*
G75*
G02*
X187493750Y-98656250I-44610J-2044610D01*
G01*
X187493750Y-115656250D02*
G75*
G02*
X185493750Y-117656250I-2000000J0D01*
G01*
D16*
X167720750Y-98356250D02*
G75*
G02*
X167466750Y-98356250I-127000J0D01*
G01*
X167466750Y-98356250D02*
G75*
G02*
X167720750Y-98356250I127000J0D01*
G01*
D17*
X169706035Y-98594545D02*
X169709083Y-98545777D01*
X169713147Y-98496756D01*
X169706035Y-98594545D01*
X187483242Y-115677824D02*
X187481463Y-115727100D01*
X187478415Y-115775868D01*
X187474351Y-115824889D01*
X187469018Y-115873657D01*
X187462414Y-115922425D01*
X187454794Y-115970940D01*
X187445903Y-116019200D01*
X187435998Y-116067205D01*
X187483242Y-115677824D01*
%TD*%
M02*
